<svg version="1.0" xmlns="http://www.w3.org/2000/svg"
     width="700.000000pt" height="540.000000pt" viewBox="0 0 700.000000 540.000000"
     preserveAspectRatio="xMidYMid meet">

    <g transform="translate(0.000000,540.000000) scale(0.100000,-0.100000)"
        stroke="none" fill="#ffff">
        <path d="M3399 3776 c-2 -2 -29 -7 -59 -10 -132 -13 -441 -65 -640 -106 -58
-12 -145 -35 -194 -51 -49 -17 -139 -38 -200 -49 -61 -10 -140 -28 -176 -39
-36 -11 -110 -29 -165 -41 -126 -26 -146 -33 -274 -87 -58 -24 -157 -62 -220
-84 -63 -22 -151 -57 -195 -78 -151 -73 -215 -101 -229 -101 -16 0 -155 -70
-268 -136 -42 -24 -79 -44 -82 -44 -15 0 -262 -123 -291 -145 -17 -13 -43 -28
-59 -34 -27 -10 -36 -34 -17 -46 6 -3 56 7 113 24 183 54 512 129 642 146 28
4 97 18 155 32 58 13 155 31 215 38 61 8 143 21 182 29 40 9 139 21 220 26
166 11 563 13 563 2 0 -4 -22 -20 -50 -35 -71 -40 -105 -71 -125 -114 -9 -21
-27 -57 -38 -81 -47 -96 36 -67 93 33 25 43 41 59 83 79 29 15 72 40 97 56 25
16 53 30 62 30 9 0 29 7 45 15 99 52 178 77 225 73 65 -7 73 -16 57 -67 -15
-52 -2 -86 37 -94 36 -7 205 21 224 37 24 20 81 43 125 50 22 4 52 9 68 12 24
5 27 3 27 -24 0 -62 55 -77 156 -41 49 17 89 21 230 24 94 2 192 9 218 15 54
12 116 48 167 97 39 37 43 36 53 -13 4 -18 22 -49 40 -70 28 -33 39 -39 74
-39 26 0 48 7 61 19 21 19 21 19 15 -11 -14 -72 36 -95 136 -63 36 11 82 20
103 20 20 0 46 5 57 12 15 10 26 10 53 0 35 -12 85 -4 113 19 17 14 -95 -179
-132 -228 -34 -44 -74 -133 -74 -162 0 -21 3 -23 32 -17 41 8 78 43 134 128
72 108 140 161 310 242 25 12 42 13 95 4 50 -8 127 -7 349 8 325 22 382 40
112 37 -314 -4 -437 -3 -462 2 -57 13 -100 6 -142 -23 -24 -16 -68 -43 -98
-61 -73 -43 -116 -83 -188 -178 -61 -81 -92 -113 -92 -95 0 5 44 76 98 158
114 173 122 186 122 213 0 25 -32 36 -61 20 -47 -24 -81 -29 -110 -13 -26 13
-32 13 -60 -2 -18 -9 -48 -16 -67 -16 -19 0 -60 -9 -90 -19 -84 -29 -92 -27
-92 25 0 24 -3 51 -6 60 -9 23 -37 19 -64 -9 -77 -82 -171 58 -125 185 9 25
19 72 22 105 4 49 2 63 -11 74 -14 12 -19 11 -36 -4 -24 -22 -40 -97 -33 -152
7 -53 -17 -94 -84 -144 -85 -64 -103 -68 -293 -74 l-135 -4 0 32 c0 25 -5 33
-22 35 -33 5 -61 -14 -68 -47 -5 -24 -15 -32 -52 -45 -60 -20 -66 -20 -52 3 7
10 9 26 5 36 -5 14 -13 16 -41 11 -20 -4 -35 -3 -35 2 0 6 -7 12 -15 16 -24 9
-185 -33 -231 -60 -25 -15 -69 -28 -115 -34 -116 -15 -107 -19 -106 57 2 65 1
68 -27 82 -17 7 -56 14 -87 15 -32 1 -57 5 -56 10 6 33 -65 1 -214 -97 -23
-15 -27 -15 -32 -3 -7 16 -99 46 -130 41 -12 -2 -112 -6 -222 -10 -298 -9
-472 -23 -550 -44 -38 -11 -104 -22 -145 -26 -83 -7 -123 -14 -285 -50 -60
-13 -168 -33 -240 -45 -71 -12 -159 -30 -195 -40 -79 -21 -190 -43 -196 -37
-2 2 56 34 129 71 72 36 182 93 242 126 61 33 132 67 159 76 26 9 105 43 175
76 69 34 167 75 216 93 50 18 156 60 237 94 81 33 174 68 205 76 145 38 346
84 433 100 52 9 130 28 173 41 83 27 271 69 377 85 36 5 92 16 125 24 33 7 96
16 140 19 288 21 405 38 405 62 0 8 -23 12 -73 13 -41 1 -76 -1 -78 -3z"/>
    </g>
</svg>